PathFileType	4	(X/Y/Z)	/Users/niels/Desktop/University/Third Semester/Perception and Action/Exam/Gymnastics Motion Tracking/Code for Gym Tracking/Analyzed Data/Webcam_Backflip/id7_3_baseline_Sports2D/id7_3_baseline_Sports2D_px_person00.trc
DataRate	CameraRate	NumFrames	NumMarkers	Units	OrigDataRate	OrigDataStartFrame	OrigNumFrames
29.810126582278482	29.810126582278482	9	22	m	29.810126582278482	39	158
Frame#	Time	Hip			RHip			RKnee			RAnkle			RBigToe			RSmallToe			RHeel			LHip			LKnee			LAnkle			LBigToe			LSmallToe			LHeel			Neck			Head			Nose			RShoulder			RElbow			RWrist			LShoulder			LElbow			LWrist		
		X1	Y1	Z1	X2	Y2	Z2	X3	Y3	Z3	X4	Y4	Z4	X5	Y5	Z5	X6	Y6	Z6	X7	Y7	Z7	X8	Y8	Z8	X9	Y9	Z9	X10	Y10	Z10	X11	Y11	Z11	X12	Y12	Z12	X13	Y13	Z13	X14	Y14	Z14	X15	Y15	Z15	X16	Y16	Z16	X17	Y17	Z17	X18	Y18	Z18	X19	Y19	Z19	X20	Y20	Z20	X21	Y21	Z21	X22	Y22	Z22
39	1.30828025477707	0.998828013957196	-0.44864228490095187	0.0	1.005152862990511	-0.44747180842601697	0.0	1.0522049004788332	-0.3622976864366707	0.0	1.0863193776358042	-0.4479882453595651	0.0	1.1136510680471476	-0.44222221801268113	0.0	1.1162195167401092	-0.44770607610925234	0.0	1.0821635823886655	-0.46384065291101134	0.0	0.9908208456110265	-0.4500384815176393	0.0	1.0404505641233828	-0.37216171178701807	0.0	1.0757156194641284	-0.44620205708157157	0.0	1.1049739434260177	-0.44457654963790977	0.0	1.0968767096014362	-0.4486021991866584	0.0	1.0726920764784291	-0.4637962189312493	0.0	0.9014132763961303	-0.35451273351716805	0.0	0.8503383949333497	-0.3068655044382739	0.0	0.8941331502437146	-0.31183375673715114	0.0	0.9250142026755855	-0.3486757871292632	0.0	0.9966163163470697	-0.32210026044048	0.0	1.03927561667573	-0.2784649418456949	0.0	0.8974047018002821	-0.3719663438515777	0.0	0.9698413662382012	-0.35539207218788826	0.0	1.0133564857226542	-0.3153298025834397	0.0
40	1.3418259023354564	1.014273255470865	-0.425169606501072	0.0	1.0213263776176846	-0.4222620922830134	0.0	1.0342113439045137	-0.3240783991072614	0.0	1.0948686781840786	-0.3865170589629806	0.0	1.1194264719485465	-0.36660476965161465	0.0	1.125206956870179	-0.3722374449213062	0.0	1.095192534785741	-0.4015134258874722	0.0	1.0054984063949295	-0.42739872424587083	0.0	1.0227205918588649	-0.33614763394488656	0.0	1.0822750849899303	-0.3874194155186659	0.0	1.1090831236946233	-0.3718779943560974	0.0	1.1015493549171178	-0.3762884341979957	0.0	1.086544103286491	-0.4033746468653512	0.0	0.9022768353430235	-0.3593915230269102	0.0	0.8461293281995066	-0.3251937285158612	0.0	0.8875477914013413	-0.32100738187009165	0.0	0.9278324622395707	-0.3502797570596944	0.0	0.9985067634737933	-0.3198150772235202	0.0	1.0370469438929415	-0.27770724304919836	0.0	0.9033979023751034	-0.3761404181490459	0.0	0.9695384342413362	-0.35331152939329796	0.0	1.0088493052425018	-0.3115464419846275	0.0
41	1.3753715498938428	1.0292027528139798	-0.3998377220806186	0.0	1.036382745588199	-0.39545073393314867	0.0	1.012636485034661	-0.2993800139767113	0.0	1.0936697518012557	-0.3321211790301236	0.0	1.1105124812712428	-0.30086424054181565	0.0	1.1192020866493542	-0.3057068737205819	0.0	1.0974932874951924	-0.3446614281829637	0.0	1.0194297750941184	-0.4027847392165079	0.0	1.0025455973051964	-0.3117665688088896	0.0	1.0796846035001764	-0.33596678876618047	0.0	1.1011425532827184	-0.3080174393856952	0.0	1.0936896598888524	-0.31221579416979617	0.0	1.0904867060573407	-0.3476971105882906	0.0	0.9075851913800429	-0.3700561014257954	0.0	0.8484466507729644	-0.3529243598291597	0.0	0.8850078752021264	-0.3381210362845493	0.0	0.9338492772377026	-0.3574736247715168	0.0	1.000570539495676	-0.3204447730525077	0.0	1.0295017040809142	-0.277509128516604	0.0	0.913559291608822	-0.38449111934569813	0.0	0.9709388770944369	-0.3534857555606961	0.0	1.0001372589067936	-0.3096757470880372	0.0
42	1.4089171974522292	1.0412330477010798	-0.3735056665345675	0.0	1.0479831578392074	-0.36842770128246216	0.0	0.9904938643760198	-0.2881687449886716	0.0	1.0825317960615688	-0.2872480147764319	0.0	1.087450487296919	-0.24965863148818046	0.0	1.0982423982632215	-0.25285062321144397	0.0	1.0884911227639373	-0.29584521856535945	0.0	1.0304992805559494	-0.376962189445108	0.0	0.9829362961426348	-0.2992057876946381	0.0	1.0686487197686874	-0.2943681364120306	0.0	1.0814021059977712	-0.25728447749605265	0.0	1.074106879652484	-0.2608643133473848	0.0	1.0839850631499173	-0.29933148884949823	0.0	0.9188221621719034	-0.3847344744839472	0.0	0.8600909634801623	-0.38720562317124435	0.0	0.8892213305862695	-0.36166936242283915	0.0	0.9441374565357282	-0.36858709068046985	0.0	1.0025392583884425	-0.32253386604814155	0.0	1.0174829512878973	-0.2777161156043973	0.0	0.9282591576757192	-0.3953583501447024	0.0	0.9748209867937673	-0.3540438793177459	0.0	0.9899855525696838	-0.3102455833825537	0.0
43	1.4424628450106156	1.0487005588142297	-0.3479536845156291	0.0	1.0546409586129648	-0.3432114960980478	0.0	0.970697169649321	-0.2891642357460408	0.0	1.0622012306538124	-0.25417974583210584	0.0	1.0529947797269967	-0.216339960881743	0.0	1.0648166690170076	-0.21733571029946644	0.0	1.0689160559907214	-0.2577883423586077	0.0	1.0375261366101054	-0.3517871183871997	0.0	0.9663350982805383	-0.2978106892274628	0.0	1.0504206456300909	-0.2645198014264924	0.0	1.0517672646000156	-0.2229133637739344	0.0	1.045431169981484	-0.2255964421026433	0.0	1.0677606700568203	-0.26083447440670354	0.0	0.9369355473598737	-0.40097143668202606	0.0	0.8828561492661533	-0.42369940896913566	0.0	0.9024133290845205	-0.3891683260453068	0.0	0.9593544039811955	-0.3813303270611761	0.0	1.0045092445495034	-0.32532084368726183	0.0	1.0029932754968496	-0.27978866101524047	0.0	0.9477905458706252	-0.4069377670016964	0.0	0.9814235925430244	-0.35402852719093336	0.0	0.9818770755918679	-0.31336128216322295	0.0
44	1.476008492569002	1.0510867690613475	-0.3253024445105866	0.0	1.0559229269090646	-0.32171999181511624	0.0	0.9556531001752848	-0.30006215941707765	0.0	1.034516222967248	-0.23481839581280914	0.0	1.0115230859489754	-0.20257433086858073	0.0	1.0232466381365652	-0.20125673398191912	0.0	1.0408133504707051	-0.2329354608383835	0.0	1.040569141367914	-0.32949253699622044	0.0	0.9545574882710764	-0.30577241282404827	0.0	1.0263514191194503	-0.24752326588327372	0.0	1.0153735895431986	-0.2068887268393268	0.0	1.01117961845114	-0.20852509301190875	0.0	1.043449131082764	-0.23448454835246674	0.0	0.9616742864277535	-0.4160062093260348	0.0	0.9166187711483504	-0.4571948579420945	0.0	0.9254052478842119	-0.41722748040143076	0.0	0.9792402196050721	-0.3932804966346919	0.0	1.0069833839902937	-0.32889064195693196	0.0	0.9887673580457896	-0.28600891520009686	0.0	0.9720669119010867	-0.41742012991419675	0.0	0.990753424816566	-0.35407003807376464	0.0	0.9790331145291468	-0.3192801316211641	0.0
45	1.5095541401273884	1.0488607837665813	-0.3075808296988354	0.0	1.0522478524650951	-0.3055195266844745	0.0	0.9468838627229432	-0.3179641601586741	0.0	1.0025091286450003	-0.230318988577167	0.0	0.9683796668148643	-0.20847679219923929	0.0	0.9789041628044899	-0.2050451703717103	0.0	1.007535398033971	-0.2229667752077951	0.0	1.0403923800676627	-0.31213006914426306	0.0	0.9486625981506194	-0.320474044304745	0.0	0.9984401572305065	-0.24380468877415357	0.0	0.9763456624368395	-0.2101790671997138	0.0	0.9751337284993011	-0.2108219621104823	0.0	1.0136268802428947	-0.2224116989221854	0.0	0.9913299302201677	-0.4273780355637835	0.0	0.9590820501701575	-0.48276709050205485	0.0	0.9571577500819859	-0.4420523276327895	0.0	1.0026288112832533	-0.4024818608296903	0.0	1.010637689670741	-0.3338574467976227	0.0	0.9777458597069902	-0.298176501370316	0.0	1.0001585484601991	-0.42507023321407744	0.0	1.002720455252472	-0.3556373403616332	0.0	0.9839672589721078	-0.32860390043832427	0.0
46	1.5430997876857748	1.0430060453318566	-0.29655955228829955	0.0	1.0446231971531938	-0.2959516021735348	0.0	0.9448915128581893	-0.3401040132493048	0.0	0.9699495540359098	-0.24114737093983937	0.0	0.9290841210856754	-0.23326647225650232	0.0	0.9374073517932184	-0.2279762581249729	0.0	0.9730812662081171	-0.22895282054905366	0.0	1.037617709180378	-0.3014930777434418	0.0	0.9487705812046271	-0.339457433469605	0.0	0.9697543969961427	-0.25367181541000855	0.0	0.9393847835932907	-0.23296003824422598	0.0	0.9411629741607448	-0.23283578353851056	0.0	0.9816955591268746	-0.22671888057508638	0.0	1.0231695917173103	-0.43350388097387244	0.0	1.0063784747007716	-0.4972929501900943	0.0	0.994927558590855	-0.46034114904556317	0.0	1.0278813312169175	-0.407874670003916	0.0	1.0160502594254124	-0.34088400721579903	0.0	0.9726526324962871	-0.31678520480203465	0.0	1.0300149008886081	-0.4284717720478038	0.0	1.0168582584024002	-0.3597753019002335	0.0	0.9978861929775982	-0.3417763569127101	0.0
47	1.5766454352441612	1.0347642187894994	-0.29370276894516695	0.0	1.0344773575667885	-0.29420824024016096	0.0	0.9491583973314069	-0.364680535624273	0.0	0.9407445413045357	-0.26756346173192147	0.0	0.8986915778586925	-0.275613043753853	0.0	0.9040465510041958	-0.2686966486428249	0.0	0.9413769286360427	-0.2519423993826607	0.0	1.0326465858515492	-0.2990999698819809	0.0	0.9540660036632643	-0.36145075061796367	0.0	0.9439463504301322	-0.2779902006788584	0.0	0.9092635881148474	-0.27428424223416703	0.0	0.913284841341687	-0.27360136333751695	0.0	0.9514563206621709	-0.2492126712008648	0.0	1.0542297046091158	-0.43409895455899006	0.0	1.054106634864856	-0.5003696114180444	0.0	1.0349184402013258	-0.4701909559764274	0.0	1.0532078625014687	-0.4094071733131579	0.0	1.0237374196800182	-0.35037183004455896	0.0	0.9757069322773737	-0.3410798741253023	0.0	1.0588615631112637	-0.42705380121322334	0.0	1.0322757535672458	-0.36664173641345243	0.0	1.0198869576441976	-0.3585198290219517	0.0
